<svg width="111" height="111" viewBox="0 0 111 111" fill="none" xmlns="http://www.w3.org/2000/svg">
<path d="M49.95 83.25H61.05V49.95H49.95V83.25ZM55.5 38.85C57.0725 38.85 58.3915 38.3172 59.4571 37.2516C60.5227 36.186 61.0537 34.8688 61.05 33.3C61.0463 31.7312 60.5135 30.414 59.4516 29.3484C58.3897 28.2828 57.0725 27.75 55.5 27.75C53.9275 27.75 52.6103 28.2828 51.5484 29.3484C50.4865 30.414 49.9537 31.7312 49.95 33.3C49.9463 34.8688 50.4791 36.1878 51.5484 37.2571C52.6177 38.3264 53.9349 38.8574 55.5 38.85ZM55.5 111C47.8225 111 40.6075 109.542 33.855 106.627C27.1025 103.711 21.2288 99.7575 16.2338 94.7662C11.2388 89.7749 7.28531 83.9012 4.37341 77.145C1.46151 70.3888 0.00370702 63.1738 7.02531e-06 55.5C-0.00369297 47.8262 1.45411 40.6112 4.37341 33.855C7.29271 27.0988 11.2462 21.225 16.2338 16.2337C21.2214 11.2424 27.0951 7.289 33.855 4.3734C40.6149 1.4578 47.8299 0 55.5 0C63.1701 0 70.3851 1.4578 77.145 4.3734C83.9049 7.289 89.7786 11.2424 94.7662 16.2337C99.7538 21.225 103.709 27.0988 106.632 33.855C109.555 40.6112 111.011 47.8262 111 55.5C110.989 63.1738 109.531 70.3888 106.627 77.145C103.722 83.9012 99.7686 89.7749 94.7662 94.7662C89.7638 99.7575 83.8901 103.713 77.145 106.632C70.3999 109.551 63.1849 111.007 55.5 111ZM55.5 99.9C67.895 99.9 78.3937 95.5987 86.9962 86.9962C95.5987 78.3937 99.9 67.895 99.9 55.5C99.9 43.105 95.5987 32.6062 86.9962 24.0037C78.3937 15.4012 67.895 11.1 55.5 11.1C43.105 11.1 32.6062 15.4012 24.0038 24.0037C15.4013 32.6062 11.1 43.105 11.1 55.5C11.1 67.895 15.4013 78.3937 24.0038 86.9962C32.6062 95.5987 43.105 99.9 55.5 99.9Z" fill="black"/>
</svg>
